<?xml version="1.0" encoding="UTF-8" standalone="no"?>
<!-- Created with Inkscape (http://www.inkscape.org/) -->

<svg
   xmlns:dc="http://purl.org/dc/elements/1.1/"
   xmlns:cc="http://creativecommons.org/ns#"
   xmlns:rdf="http://www.w3.org/1999/02/22-rdf-syntax-ns#"
   xmlns:svg="http://www.w3.org/2000/svg"
   xmlns="http://www.w3.org/2000/svg"
   xmlns:sodipodi="http://sodipodi.sourceforge.net/DTD/sodipodi-0.dtd"
   xmlns:inkscape="http://www.inkscape.org/namespaces/inkscape"
   width="192"
   height="172"
   viewBox="0 0 192 172"
   id="svg2"
   version="1.1"
   inkscape:version="0.91 r13725"
   sodipodi:docname="logo.svg"
   inkscape:export-filename="/home/petervaro/documents/personal/remote/C11/img/logo.png"
   inkscape:export-xdpi="91.410004"
   inkscape:export-ydpi="91.410004">
  <defs
     id="defs4" />
  <sodipodi:namedview
     id="base"
     pagecolor="#ffffff"
     bordercolor="#666666"
     borderopacity="1.0"
     inkscape:pageopacity="0.0"
     inkscape:pageshadow="2"
     inkscape:zoom="1.979899"
     inkscape:cx="14.859966"
     inkscape:cy="126.03604"
     inkscape:document-units="px"
     inkscape:current-layer="layer1"
     showgrid="false"
     units="px"
     inkscape:showpageshadow="false"
     showborder="true"
     inkscape:window-width="2560"
     inkscape:window-height="1422"
     inkscape:window-x="0"
     inkscape:window-y="0"
     inkscape:window-maximized="1"
     showguides="true"
     inkscape:guide-bbox="true" />
  <metadata
     id="metadata7">
    <rdf:RDF>
      <cc:Work
         rdf:about="">
        <dc:format>image/svg+xml</dc:format>
        <dc:type
           rdf:resource="http://purl.org/dc/dcmitype/StillImage" />
        <dc:title></dc:title>
      </cc:Work>
    </rdf:RDF>
  </metadata>
  <g
     inkscape:label="Layer 1"
     inkscape:groupmode="layer"
     id="layer1"
     transform="translate(0,-880.36216)">
    <g
       id="g4357"
       transform="translate(30.809282,253.83427)">
      <path
         style="opacity:1;fill:#ff8080;fill-opacity:1;fill-rule:evenodd;stroke:none;stroke-width:25;stroke-miterlimit:4;stroke-dasharray:none;stroke-opacity:1"
         d="m 72,648.59054 32,0 0,128.00002 -32,0 z"
         id="path4312"
         inkscape:connector-curvature="0" />
      <path
         style="opacity:1;fill:#ff8080;fill-opacity:1;fill-rule:evenodd;stroke:none;stroke-width:25;stroke-miterlimit:4;stroke-dasharray:none;stroke-opacity:1"
         d="m 112,648.59054 32,0 0,128.00002 -32,0 z"
         id="path4314"
         inkscape:connector-curvature="0" />
      <path
         inkscape:connector-curvature="0"
         id="path4328"
         d="m 48.190718,646.52789 a 66,66 0 0 0 -66,66 66,66 0 0 0 66,66 66,66 0 0 0 16,-2.05273 l 0,-33.97461 a 34,34 0 0 1 -16,4.02734 34,34 0 0 1 -34,-34 34,34 0 0 1 34,-34 34,34 0 0 1 16,4.01758 l 0,-33.98242 a 66,66 0 0 0 -16,-2.03516 z"
         style="opacity:1;fill:#3771c8;fill-opacity:1;fill-rule:evenodd;stroke:none;stroke-width:25;stroke-miterlimit:4;stroke-dasharray:none;stroke-opacity:1" />
    </g>
  </g>
</svg>
